<svg id="Capa_1" data-name="Capa 1" xmlns="http://www.w3.org/2000/svg" xmlns:xlink="http://www.w3.org/1999/xlink" viewBox="0 0 1006.6 341.28"><defs><style>.cls-1{fill:#f9f7f8;}.cls-2,.cls-3,.cls-4{fill:none;stroke:#1b1464;stroke-linecap:round;}.cls-10,.cls-2,.cls-3,.cls-4,.cls-9{stroke-miterlimit:10;}.cls-3{stroke-dasharray:9.92 9.92;}.cls-4{stroke-dasharray:10.27 10.27;}.cls-5,.cls-6{font-size:119.11px;letter-spacing:-0.02em;}.cls-5{fill:#000002;}.cls-5,.cls-6,.cls-7,.cls-8{font-family:Cumiskat-Regular, Cumiskat;}.cls-6,.cls-8{fill:#5158af;}.cls-7,.cls-8{font-size:54.89px;letter-spacing:-0.03em;}.cls-7{fill:#000105;}.cls-13,.cls-9{fill:#f70dc6;}.cls-10,.cls-9{stroke:#000;stroke-width:0.25px;}.cls-10,.cls-11{fill:#eabee9;}.cls-12{fill:#9e005d;}.cls-14{fill:#c1272d;}.cls-15{fill:#ed1e79;}.cls-16{fill:url(#Degradado_sin_nombre_55);}.cls-17{fill:url(#Degradado_sin_nombre_74);}.cls-18{fill:url(#Degradado_sin_nombre_55-2);}.cls-19{fill:url(#Degradado_sin_nombre_55-3);}.cls-20{fill:url(#Degradado_sin_nombre_55-4);}.cls-21{fill:url(#Degradado_sin_nombre_74-2);}.cls-22{fill:url(#Degradado_sin_nombre_55-5);}.cls-23{fill:url(#Degradado_sin_nombre_55-6);}.cls-24{fill:url(#Degradado_sin_nombre_55-7);}.cls-25{fill:url(#Degradado_sin_nombre_74-3);}.cls-26{fill:url(#Degradado_sin_nombre_74-4);}.cls-27{fill:url(#Degradado_sin_nombre_74-5);}</style><radialGradient id="Degradado_sin_nombre_55" cx="-648.42" cy="170.21" r="25.7" gradientTransform="matrix(1.17, 0.59, -0.26, 1.94, 911.13, 214.07)" gradientUnits="userSpaceOnUse"><stop offset="0" stop-color="#fff" stop-opacity="0.3"/><stop offset="0.74" stop-color="#fff" stop-opacity="0.3"/></radialGradient><radialGradient id="Degradado_sin_nombre_74" cx="1389.58" cy="462.74" r="32.89" gradientTransform="matrix(-1.25, -0.46, -0.02, -2.06, 1864.36, 1801.1)" gradientUnits="userSpaceOnUse"><stop offset="0" stop-opacity="0.3"/><stop offset="0.74" stop-opacity="0.3"/></radialGradient><radialGradient id="Degradado_sin_nombre_55-2" cx="534.03" cy="-1730.25" r="13.46" gradientTransform="matrix(0.35, -0.68, 0.65, 0.35, 983.15, 1190.62)" xlink:href="#Degradado_sin_nombre_55"/><radialGradient id="Degradado_sin_nombre_55-3" cx="-2125.1" cy="-279.7" r="13.46" gradientTransform="matrix(0.68, -0.23, 0.22, 0.74, 1554.98, -91.37)" xlink:href="#Degradado_sin_nombre_55"/><radialGradient id="Degradado_sin_nombre_55-4" cx="-2982.88" cy="1770.13" r="13.46" gradientTransform="matrix(0.68, 0.2, -0.2, 0.77, 2428.44, -586.59)" xlink:href="#Degradado_sin_nombre_55"/><radialGradient id="Degradado_sin_nombre_74-2" cx="-3813.13" cy="163.3" r="28.31" gradientTransform="matrix(0.71, -0.1, -0.05, -0.77, 2825.08, 28.03)" xlink:href="#Degradado_sin_nombre_74"/><radialGradient id="Degradado_sin_nombre_55-5" cx="391.86" cy="2196.28" r="13.46" gradientTransform="matrix(0.38, -0.66, -0.6, -0.44, 1351.4, 1402.21)" xlink:href="#Degradado_sin_nombre_55"/><radialGradient id="Degradado_sin_nombre_55-6" cx="595.1" cy="2006.16" r="13.46" gradientTransform="matrix(-0.07, -0.76, -0.74, 0.04, 1699.79, 538.07)" xlink:href="#Degradado_sin_nombre_55"/><radialGradient id="Degradado_sin_nombre_55-7" cx="-959.55" cy="1713.41" r="13.46" gradientTransform="matrix(0.68, -0.23, -0.17, -0.77, 1116.4, 1318.45)" xlink:href="#Degradado_sin_nombre_55"/><radialGradient id="Degradado_sin_nombre_74-3" cx="-1102.85" cy="1649.68" r="5.31" gradientTransform="matrix(0.68, -0.23, -0.17, -0.77, 1116.4, 1318.45)" xlink:href="#Degradado_sin_nombre_74"/><radialGradient id="Degradado_sin_nombre_74-4" cx="6291.22" cy="-2229.99" r="9.36" gradientTransform="matrix(-0.71, 0.01, -0.05, 0.8, 4401.54, 1959.72)" xlink:href="#Degradado_sin_nombre_74"/><radialGradient id="Degradado_sin_nombre_74-5" cx="-117.39" cy="2378.29" r="9.36" gradientTransform="matrix(0.58, -0.46, -0.4, -0.65, 1159.04, 1745.71)" xlink:href="#Degradado_sin_nombre_74"/></defs><rect class="cls-1" x="7.47" y="8.68" width="991.66" height="328.22"/><polyline class="cls-2" points="999.13 331.9 999.13 336.9 994.13 336.9"/><line class="cls-3" x1="984.21" y1="336.9" x2="17.43" y2="336.9"/><polyline class="cls-2" points="12.47 336.9 7.47 336.9 7.47 331.9"/><line class="cls-4" x1="7.47" y1="321.63" x2="7.47" y2="18.81"/><polyline class="cls-2" points="7.47 13.68 7.47 8.68 12.47 8.68"/><line class="cls-3" x1="22.39" y1="8.68" x2="989.17" y2="8.68"/><polyline class="cls-2" points="994.13 8.68 999.13 8.68 999.13 13.68"/><line class="cls-4" x1="999.13" y1="23.94" x2="999.13" y2="326.76"/><text class="cls-5" transform="translate(210.9 186.3) scale(1.05 1)">S.A.P.G</text><text class="cls-6" transform="translate(203.34 186.3) scale(1.05 1)">S.A.P.G</text><text/><text class="cls-7" transform="translate(239.26 307.81) scale(1.01 1)"><tspan xml:space="preserve">AJOLOTITOS  </tspan></text><text/><text class="cls-8" transform="translate(235.3 308.57) scale(1.01 1)"><tspan xml:space="preserve">AJOLOTITOS  </tspan></text><path class="cls-9" d="M80.65,261.13S79,267.6,53.21,254c-26.21,2.61-22,10.93-26.08,17.72-.15.59,18.5,1.36,24.3,9.15,1.09.29,28.37,18.07,35.11,4.43,0,0,4-22.2.47-24.08A6.54,6.54,0,0,0,80.65,261.13Z"/><path class="cls-10" d="M69.85,267.28a74.12,74.12,0,0,1-14.91-5.18c-13.24,1.32-14.37,5.47-17.5,8.46-.08.29,13.68,1.18,16.61,5.12.55.14,20,13,23.41,6.08,0,0,2.79-13.71.75-13.72C75.75,268,69.85,267.28,69.85,267.28Z"/><path class="cls-11" d="M77.93,275.83a32.52,32.52,0,0,0,2.47,10.11c1.34,3,3.4,5.9,6.54,7.37l-6.54-7.37s-.35,15.44,6.63,20c0,0-10,5.24-6.12,14,.1.71,3.24,1.2,7.82-2.08,0,.48-2.9,14.07,6.18,1.42-.41,1.11,5.31,23.75,8.81-13.63l-1.38-7.23s14,4.72,20.85,1.1c.42.06-13.71,15.68-4.16,24.63,0,.23,2.63,1.11,4.69-4.66.35.52,2.65,15.15,6.75-.13,0,1.17,15.29,12.18,3.94-11.8.39.29,9.79-9.15,12.27-21.23s9.09-28.15-.17-42.67c-9-21.05,41.59-36-11.44-21.42l-53,14.56s-22.38,20.78-6.24,36.95,14.65-2,11.28-3.18,15.52,9.76,4-4.65c-.08.69,18.17,2.09,6.09-7.14s-13.52-12.26-12-13.77"/><path d="M77.93,275.83a31.94,31.94,0,0,0,.81,5.06,28.58,28.58,0,0,0,1.59,4.87A18,18,0,0,0,83,290.15a11.53,11.53,0,0,0,4,3.15h0L80.39,286h0a49.31,49.31,0,0,0,.3,5.44,38.82,38.82,0,0,0,1,5.36,21.58,21.58,0,0,0,1.89,5.1,11.3,11.3,0,0,0,3.48,4.1l0,0,0,0a17.35,17.35,0,0,0-3.39,2.52,13.67,13.67,0,0,0-2.57,3.33,8.88,8.88,0,0,0-1,4.06,10.16,10.16,0,0,0,.88,4.09h0c.11.32.53.42.86.46a4.26,4.26,0,0,0,1.07,0,8.71,8.71,0,0,0,2.07-.51,14.31,14.31,0,0,0,2-.9,17.86,17.86,0,0,0,1.81-1.15l.07,0v.07c-.16,1.27-.37,2.5-.41,3.76a8.41,8.41,0,0,0,.11,1.88,2.14,2.14,0,0,0,.38.84.76.76,0,0,0,.82.23,3.78,3.78,0,0,0,1.57-1,16.7,16.7,0,0,0,1.31-1.35c.82-1,1.58-2,2.32-3l.09-.12v.16a7.24,7.24,0,0,0,.27,1.93,17.66,17.66,0,0,0,.53,1.89,15.25,15.25,0,0,0,.72,1.84,5.87,5.87,0,0,0,1.06,1.63,1.4,1.4,0,0,0,.83.43,1.11,1.11,0,0,0,.85-.33,5.25,5.25,0,0,0,1-1.65,23,23,0,0,0,1.17-3.75,78.59,78.59,0,0,0,1.36-7.78c.36-2.61.62-5.23.88-7.85h0l-1.39-7.23,0-.1.11,0c1.68.55,3.4,1,5.13,1.38a49.53,49.53,0,0,0,5.25.87,27.71,27.71,0,0,0,5.31.12,13.47,13.47,0,0,0,5.11-1.28h0c.14.11,0,.11.06.14l0,.06-.06.09-.12.18-.25.35-.51.7-1,1.4c-.64.94-1.26,1.9-1.84,2.89a31.09,31.09,0,0,0-2.84,6.21,14.86,14.86,0,0,0-.69,6.74,10,10,0,0,0,3.16,5.88l0,.08s.2.08.33.07a1.25,1.25,0,0,0,.43,0,2.21,2.21,0,0,0,.82-.31,4.9,4.9,0,0,0,1.31-1.22,12.76,12.76,0,0,0,1.64-3.23l.09-.24.06.22c.41,1.33.64,2.59,1.09,3.85a10.7,10.7,0,0,0,.77,1.81c.3.53.75,1.19,1.38,1.09s1-.76,1.32-1.29a13.88,13.88,0,0,0,.83-1.79c.47-1.23.84-2.5,1.19-3.78l.1-.34.09.37a1.91,1.91,0,0,0,.41.55l.56.5a13.35,13.35,0,0,0,1.23.9,10.34,10.34,0,0,0,2.72,1.31,2.19,2.19,0,0,0,2.64-.62,4.86,4.86,0,0,0,.29-2.93,27.86,27.86,0,0,0-1.66-5.85c-.73-1.91-1.58-3.76-2.43-5.61l.16-.14s0,0,0,0l.05,0,.1-.06.21-.16c.14-.11.27-.23.4-.35l.76-.76c.49-.52,1-1.06,1.43-1.6.92-1.1,1.78-2.25,2.59-3.43a45.92,45.92,0,0,0,4.21-7.49,37.11,37.11,0,0,0,2.57-8.19c.61-2.81,1.34-5.59,2-8.38s1.28-5.6,1.74-8.44a53.37,53.37,0,0,0,.64-8.56,34.2,34.2,0,0,0-1.23-8.48,32,32,0,0,0-3.5-7.81h0a13.38,13.38,0,0,1-1-6.93,17.18,17.18,0,0,1,2.38-6.61c2.41-4.07,5.86-7.35,9.31-10.5a15.69,15.69,0,0,0,2.38-2.52.56.56,0,0,0,.09-.35.33.33,0,0,0-.26-.2,2.9,2.9,0,0,0-.84-.05,14.64,14.64,0,0,0-1.73.23c-2.3.42-4.57,1-6.84,1.58-4.54,1.17-9.06,2.4-13.58,3.64L82.07,236.91h0A50,50,0,0,0,75.41,245a34.64,34.64,0,0,0-4.51,9.47,23.4,23.4,0,0,0-.88,5.18,18.67,18.67,0,0,0,.55,5.21,19.8,19.8,0,0,0,5.3,8.95,50.27,50.27,0,0,0,3.9,3.53,17.27,17.27,0,0,0,4.48,2.72,4.6,4.6,0,0,0,2.56.31,2.83,2.83,0,0,0,1.92-1.63,8.2,8.2,0,0,0,.17-5.16,6,6,0,0,0-1.09-2.36,1.71,1.71,0,0,0-1.07-.67c-.1,0,.06.11.12.16l.27.19.56.35a19.74,19.74,0,0,0,4.82,2.06,4.43,4.43,0,0,0,1.3.14,1,1,0,0,0,1-.68,2.45,2.45,0,0,0-.17-1.28,7.49,7.49,0,0,0-.54-1.19,34,34,0,0,0-3-4.32h0a2.44,2.44,0,0,0,1.08.31c.38.06.77.09,1.16.12a22.85,22.85,0,0,0,2.34,0,10.49,10.49,0,0,0,4.53-.94,2.25,2.25,0,0,0,.85-.77,1.62,1.62,0,0,0,.2-1.12,4.47,4.47,0,0,0-1.09-2,21.5,21.5,0,0,0-3.48-3.12c-2.47-1.9-4.91-3.85-7.23-5.94a33.26,33.26,0,0,1-3.27-3.34,8.47,8.47,0,0,1-1.26-2,2.89,2.89,0,0,1-.23-1.13,1.81,1.81,0,0,1,.51-1,1.73,1.73,0,0,0-.5,1,2.71,2.71,0,0,0,.22,1.13,8.41,8.41,0,0,0,1.26,2,31.36,31.36,0,0,0,3.28,3.34c2.31,2.09,4.76,4,7.23,5.94a21.51,21.51,0,0,1,3.49,3.11,4.62,4.62,0,0,1,1.1,2,1.63,1.63,0,0,1-.21,1.14,2.31,2.31,0,0,1-.85.79,10.64,10.64,0,0,1-4.55.94,22.84,22.84,0,0,1-2.34,0c-.39,0-.78-.07-1.17-.13-.19,0-.38-.06-.58-.1s-.4,0-.53-.24h0a33.11,33.11,0,0,1,3,4.32,8.68,8.68,0,0,1,.55,1.2,2.41,2.41,0,0,1,.17,1.3,1,1,0,0,1-1,.71,4.49,4.49,0,0,1-1.32-.14,19.49,19.49,0,0,1-4.84-2.06L87.1,271l-.27-.19-.13-.11a.15.15,0,0,1,0-.09c0-.06.08-.06.09-.05a1.73,1.73,0,0,1,1.11.69A6.19,6.19,0,0,1,89,273.58a8.33,8.33,0,0,1-.18,5.2,2.9,2.9,0,0,1-2,1.66,4.71,4.71,0,0,1-2.6-.31,17,17,0,0,1-4.5-2.73,50.35,50.35,0,0,1-3.92-3.53,19.74,19.74,0,0,1-5.32-9,18.41,18.41,0,0,1-.56-5.23,23.38,23.38,0,0,1,.88-5.2A34.74,34.74,0,0,1,75.32,245,49.64,49.64,0,0,1,82,236.82h0l54.23-14.91c4.52-1.24,9-2.48,13.57-3.66,2.28-.57,4.55-1.16,6.86-1.59a17.09,17.09,0,0,1,1.75-.23,2.81,2.81,0,0,1,.91.06.5.5,0,0,1,.38.33.64.64,0,0,1-.1.48,14.83,14.83,0,0,1-2.42,2.58c-3.45,3.15-6.88,6.43-9.26,10.46a17.09,17.09,0,0,0-2.35,6.54,13.26,13.26,0,0,0,1,6.81h0a31.49,31.49,0,0,1,3.54,7.87,34.69,34.69,0,0,1,1.25,8.53,53.9,53.9,0,0,1-.63,8.61c-.46,2.85-1.07,5.66-1.75,8.46s-1.41,5.57-2,8.38a38.36,38.36,0,0,1-2.58,8.23,47.11,47.11,0,0,1-4.24,7.52q-1.23,1.77-2.62,3.44c-.46.55-.94,1.09-1.44,1.61-.25.26-.5.52-.76.76l-.41.37-.23.16a.36.36,0,0,1-.12.08l-.08,0a.23.23,0,0,1-.16,0l.16-.13c.86,1.86,1.71,3.72,2.43,5.63a27.57,27.57,0,0,1,1.67,5.9,5,5,0,0,1-.32,3.06A1.81,1.81,0,0,1,137,323a3.54,3.54,0,0,1-1.55-.14,10.65,10.65,0,0,1-2.78-1.34,15.13,15.13,0,0,1-1.24-.91,7,7,0,0,1-.57-.52,1.51,1.51,0,0,1-.47-.68l.19,0a39,39,0,0,1-1.21,3.8,12.36,12.36,0,0,1-.84,1.81,4.75,4.75,0,0,1-.58.83,1.54,1.54,0,0,1-.87.55,1.13,1.13,0,0,1-1-.36,3.68,3.68,0,0,1-.6-.82,11.46,11.46,0,0,1-.79-1.84c-.43-1.25-.7-2.6-1-3.81l.15,0a12.54,12.54,0,0,1-1.67,3.28,5.08,5.08,0,0,1-1.35,1.26,2.75,2.75,0,0,1-.88.33,1.55,1.55,0,0,1-.48,0,1,1,0,0,1-.24-.05.61.61,0,0,1-.12-.05l-.06-.05a.23.23,0,0,1-.06-.12l0,.07a10.17,10.17,0,0,1-3.2-6,15.09,15.09,0,0,1,.7-6.8,31.81,31.81,0,0,1,2.86-6.25c.58-1,1.2-1.95,1.85-2.89l1-1.41.51-.69.25-.35.12-.17,0-.09,0,0s0,0,.06,0h0a13.58,13.58,0,0,1-5.16,1.29,27.92,27.92,0,0,1-5.33-.13,46.54,46.54,0,0,1-5.26-.88c-1.74-.38-3.46-.83-5.15-1.38l.08-.07,1.37,7.23h0c-.26,2.62-.52,5.24-.88,7.85s-.76,5.22-1.37,7.79a22.57,22.57,0,0,1-1.18,3.77,5.37,5.37,0,0,1-1.06,1.68,1.24,1.24,0,0,1-.93.36,1.48,1.48,0,0,1-.88-.46,5.79,5.79,0,0,1-1.08-1.66,15.45,15.45,0,0,1-.73-1.85c-.2-.62-.38-1.26-.53-1.9a6.86,6.86,0,0,1-.26-2l.07,0c-.74,1-1.5,2-2.33,3a15.39,15.39,0,0,1-1.32,1.36,3.81,3.81,0,0,1-1.61,1,.83.83,0,0,1-.89-.26,2,2,0,0,1-.39-.87,8.1,8.1,0,0,1-.12-1.9,35.84,35.84,0,0,1,.42-3.75l.06,0a19.35,19.35,0,0,1-1.83,1.15,13.83,13.83,0,0,1-2,.91,9.47,9.47,0,0,1-2.1.51,4.87,4.87,0,0,1-1.08,0c-.33-.06-.77-.12-.92-.52h0a10.49,10.49,0,0,1-.89-4.12,9.08,9.08,0,0,1,1-4.08,13.6,13.6,0,0,1,2.59-3.35,16.74,16.74,0,0,1,3.4-2.52v0a11.32,11.32,0,0,1-3.5-4.12,21.65,21.65,0,0,1-1.89-5.11,37.61,37.61,0,0,1-.95-5.36,47.27,47.27,0,0,1-.29-5.45v0l0,0L87,293.3l0,0,0,0a11.5,11.5,0,0,1-4-3.16,18.14,18.14,0,0,1-2.63-4.39,28.87,28.87,0,0,1-1.59-4.87A33.43,33.43,0,0,1,77.93,275.83Z"/><path class="cls-12" d="M173.43,193.65c-1-28.79-30.21-49.89-65.25-47.11s-62.64,28.37-61.65,57.17S76.14,243.89,111,238.34C153.6,231.55,174.42,222.45,173.43,193.65Z"/><path class="cls-12" d="M154.35,158.81a1.58,1.58,0,0,1,.23-2.88c5.87-1.84,15.25-5.47,19-10.69,5.45-7.58,9.82,16.84-2.17,30.89a1.27,1.27,0,0,1-2.2-.21C167.09,172.14,161.62,162.55,154.35,158.81Z"/><path class="cls-12" d="M171,179.17c-.61-1.27.5-2.73,1.74-2.24,5.62,2.21,15,5.19,20.77,3.25,8.4-2.81-1.39,20.25-18.45,24.25-1,.23-1.71-.5-1.62-1.57C173.81,198.37,174.7,186.91,171,179.17Z"/><path class="cls-12" d="M172.53,207a2.25,2.25,0,0,1,4.19-.5c2.95,5.58,7.55,12.87,12.37,15.13,7.67,3.6-12,14.32-26.87,6.76-1.6-.82-3.28-3.44-2-4.86C163.27,220.13,170.27,214.26,172.53,207Z"/><path class="cls-12" d="M67,234.83a1.59,1.59,0,0,1-.3,2.88c-5.89,1.7-17.69,7.86-21.55,13-5.61,7.45-9.46-17.09,2.82-30.84a1.27,1.27,0,0,1,2.19.25C52.2,223.94,59.82,230.91,67,234.83Z"/><path class="cls-12" d="M48.45,216.81c.58,1.29-.57,2.72-1.79,2.2-5.57-2.35-14.86-5.57-20.68-3.77-8.45,2.6,1.82-20.23,18.94-23.81,1-.2,1.7.55,1.59,1.62C46,197.53,44.91,209,48.45,216.81Z"/><path class="cls-12" d="M47.64,190.65a1.4,1.4,0,0,1-2.61.64c-3-5.56-8.49-14.25-14-16.57-8-3.37,12.59-15.43,27.91-7.22a1.49,1.49,0,0,1,.34,2.36C56.43,173.24,49.22,181.91,47.64,190.65Z"/><ellipse class="cls-12" cx="76.61" cy="210.2" rx="10.91" ry="3.08" transform="translate(-37.94 18.03) rotate(-10.77)"/><ellipse class="cls-12" cx="152.66" cy="197.32" rx="10.91" ry="3.08" transform="translate(-34.19 32.01) rotate(-10.77)"/><path class="cls-12" d="M112.88,198.1a8.54,8.54,0,0,1-.46,3.68c-1.46,4.06-5.63,6.19-9.33,4.76a7.36,7.36,0,0,1-4.5-6.16"/><path class="cls-12" d="M127.19,196.54a8.43,8.43,0,0,1-.5,3.1c-1.46,4.06-5.63,6.19-9.32,4.76a7.42,7.42,0,0,1-4.53-6.34"/><path class="cls-12" d="M77.88,200.65a11.88,11.88,0,0,1,.09-4.36c1.21-5.89,6.57-9.77,12-8.66a9.89,9.89,0,0,1,7.49,7.62"/><path class="cls-12" d="M127.57,191.14a11.78,11.78,0,0,1,.88-4.28c2.26-5.56,8.18-8.23,13.22-6a10.4,10.4,0,0,1,5.9,9.15"/><path class="cls-12" d="M147.45,157.92c8.44,1.1-21.57-11.93-42.67-8.63S57.4,170.7,64.15,169.55c34.54-5.9,19.19-14.16,39.29-18.12C124.43,147.3,125,155,147.45,157.92Z"/><path class="cls-12" d="M63.24,227.31c-7.67-9.9,12.87,10.11,34,7.9,24.64-2.58,47.15-2.87,52-11.57,17.85-31.77,33.37-21,6.79-2.32C141.06,231.91,79.43,248.2,63.24,227.31Z"/><path class="cls-12" d="M57,167.77c3.93,1.68-9.46-2.51-20.27.43s-.91,6.93,2.38,5.43C55.89,166,47,167.29,49.32,170,51.33,172.29,46.32,163.2,57,167.77Z"/><path class="cls-12" d="M44.74,193.39c4.19-1.07-9.29,3.82-16.87,12.86s2.86,6.11,4.85,2.89c10.13-16.49,3.35-10,6.68-9.25C42.31,200.52,33.33,196.32,44.74,193.39Z"/><path class="cls-12" d="M48.47,222.52c2.86-3.55-5.55,9-6.83,21s5.72,2.92,5.58-.89c-.71-19.44-2.72-10,.42-11.55C50.39,229.67,40.68,232.2,48.47,222.52Z"/><path class="cls-12" d="M175.41,147.67c-1.21-4.4,1.5,10.47-2.1,22s-6.41.4-4.77-3c8.41-17.55,6.47-8.05,4.23-10.76C170.8,153.45,178.69,159.65,175.41,147.67Z"/><path class="cls-12" d="M194.52,183.35c1.54-4.38-4.7,9.54-13.91,16.54s-5.18-3.91-2-5.62c16.33-8.78,9.51-2.31,9.29-6C187.72,185,190.35,195.29,194.52,183.35Z"/><path class="cls-12" d="M187.41,225.06c3.79-2.28-9.25,4-20.2,2.71s-1.36-6.75,2-5.77c17.18,5,8.29,5.09,10.39,2.08C181.45,221.45,177.07,231.26,187.41,225.06Z"/><path class="cls-11" d="M176.05,189.18c-1-28.8-30.2-49.89-65.24-47.12s-62.65,28.37-61.66,57.17,29.62,40.19,64.47,34.63C156.23,227.07,177,218,176.05,189.18Z"/><path d="M176.05,189.18a42.88,42.88,0,0,0-6.27-20.83,50.6,50.6,0,0,0-15.19-15.64A63.37,63.37,0,0,0,134.54,144a73.36,73.36,0,0,0-21.8-2A75.26,75.26,0,0,0,71.92,156.5a61,61,0,0,0-15,15.89,48.06,48.06,0,0,0-7.41,20.45,43.46,43.46,0,0,0,.15,10.93,32.89,32.89,0,0,0,3.23,10.42,31.51,31.51,0,0,0,6.51,8.74,38.45,38.45,0,0,0,9,6.24,58.76,58.76,0,0,0,21.09,5.63,95.7,95.7,0,0,0,21.92-.68c7.25-1.08,14.47-2.36,21.62-4A114.45,114.45,0,0,0,154,223.59a49.34,49.34,0,0,0,9.51-5.46,31.16,31.16,0,0,0,7.54-7.91,28.85,28.85,0,0,0,2.55-4.86,32.08,32.08,0,0,0,1.59-5.25A44.57,44.57,0,0,0,176.05,189.18Zm0,0a44.56,44.56,0,0,1-.86,10.93,32.19,32.19,0,0,1-1.59,5.26,28.89,28.89,0,0,1-2.54,4.87,31,31,0,0,1-7.54,7.92,48.2,48.2,0,0,1-9.52,5.48,113.56,113.56,0,0,1-20.95,6.61c-7.15,1.61-14.37,2.91-21.62,4a96,96,0,0,1-22,.72,58.9,58.9,0,0,1-21.16-5.62,38.57,38.57,0,0,1-9-6.26,31.8,31.8,0,0,1-6.57-8.79,33.34,33.34,0,0,1-3.26-10.49,43,43,0,0,1-.16-11,48.07,48.07,0,0,1,7.47-20.53,61.13,61.13,0,0,1,15-15.93,75.36,75.36,0,0,1,40.92-14.46,73.22,73.22,0,0,1,21.83,2,63.42,63.42,0,0,1,20.06,8.77,50.4,50.4,0,0,1,15.19,15.68A42.89,42.89,0,0,1,176.05,189.18Z"/><path class="cls-13" d="M157.77,155.86A1.59,1.59,0,0,1,158,153c5.86-1.85,15.25-5.48,19-10.69,5.45-7.59,9.82,16.84-2.17,30.88a1.27,1.27,0,0,1-2.2-.2C170.52,169.19,165,159.6,157.77,155.86Z"/><path class="cls-14" d="M157.77,155.86a1.62,1.62,0,0,1-.47-2.41,2.31,2.31,0,0,1,1.22-.65l1.32-.44c1.76-.6,3.5-1.26,5.2-2a37.39,37.39,0,0,0,9.57-5.62,14,14,0,0,0,1.93-2c.58-.68,1.09-1.6,2.05-1.89a1.52,1.52,0,0,1,1.38.24,3.4,3.4,0,0,1,.93,1.07,10,10,0,0,1,1,2.61,30.86,30.86,0,0,1,.35,11.13,36.32,36.32,0,0,1-3.13,10.69,29.17,29.17,0,0,1-2.84,4.82c-.26.38-.55.74-.85,1.11a4.9,4.9,0,0,1-1,1,1.24,1.24,0,0,1-1.38,0,3.07,3.07,0,0,1-.84-1.13,66,66,0,0,0-6.15-9.28A28.27,28.27,0,0,0,157.77,155.86Zm0,0a28.31,28.31,0,0,1,8.39,7.25,67,67,0,0,1,6.21,9.25,3,3,0,0,0,.8,1.09,1.12,1.12,0,0,0,1.24,0,4.72,4.72,0,0,0,.92-1c.29-.36.58-.72.84-1.11a28.33,28.33,0,0,0,2.79-4.8A36.48,36.48,0,0,0,182,155.89a30.85,30.85,0,0,0-.29-11,9.3,9.3,0,0,0-1-2.57,3.34,3.34,0,0,0-.87-1,1.4,1.4,0,0,0-1.25-.22c-.89.26-1.38,1.13-2,1.83a14.74,14.74,0,0,1-2,2,37.3,37.3,0,0,1-9.62,5.58c-1.72.73-3.46,1.38-5.22,2l-1.33.44a2.16,2.16,0,0,0-1.2.63A1.6,1.6,0,0,0,157.77,155.86Z"/><path class="cls-13" d="M174.42,176.21c-.6-1.27.51-2.72,1.75-2.24,5.62,2.21,15,5.19,20.76,3.26,8.41-2.82-1.38,20.24-18.44,24.25a1.34,1.34,0,0,1-1.62-1.58C177.24,195.41,178.12,184,174.42,176.21Z"/><path class="cls-14" d="M174.42,176.21a1.66,1.66,0,0,1,.91-2.29,2.09,2.09,0,0,1,1.34.23l1.3.49c1.74.63,3.51,1.2,5.29,1.69a32,32,0,0,0,11,1.37,12.43,12.43,0,0,0,2.7-.54l.68-.18c.23,0,.47,0,.71-.06a1.72,1.72,0,0,1,1.27.59,2.4,2.4,0,0,1,.48,1.33,6,6,0,0,1-.05,1.4,12.47,12.47,0,0,1-.74,2.69,31.35,31.35,0,0,1-5.93,9.37,33.16,33.16,0,0,1-8.68,6.91,25.92,25.92,0,0,1-5.16,2.08,7.77,7.77,0,0,1-1.37.3,1.3,1.3,0,0,1-1.17-.76,2.49,2.49,0,0,1-.11-1.4l.11-1.38A69.6,69.6,0,0,0,177,187,31.91,31.91,0,0,0,174.42,176.21Zm0,0A32.13,32.13,0,0,1,177.05,187a69.84,69.84,0,0,1,0,11.11l-.1,1.38a2.38,2.38,0,0,0,.11,1.33,1.14,1.14,0,0,0,1,.67,7.49,7.49,0,0,0,1.33-.31,25.18,25.18,0,0,0,5.11-2.09,32.7,32.7,0,0,0,8.58-6.9,31.19,31.19,0,0,0,6-9.27,12.88,12.88,0,0,0,.74-2.65,3.56,3.56,0,0,0-.38-2.61,1.58,1.58,0,0,0-1.16-.54c-.22,0-.45,0-.67.06l-.67.17a13.32,13.32,0,0,1-2.73.53,32.18,32.18,0,0,1-11-1.44c-1.78-.5-3.54-1.08-5.28-1.72l-1.3-.49a2,2,0,0,0-1.33-.24A1.64,1.64,0,0,0,174.42,176.21Z"/><path class="cls-13" d="M176,204.08a2.26,2.26,0,0,1,4.19-.51c3,5.59,7.55,12.87,12.37,15.13,7.68,3.6-12,14.32-26.86,6.76-1.61-.81-3.28-3.43-2-4.86C166.7,217.17,173.7,211.3,176,204.08Z"/><path class="cls-14" d="M176,204.08a2.42,2.42,0,0,1,1.92-1.71,2.2,2.2,0,0,1,2.27,1.16c.85,1.58,1.73,3.15,2.69,4.67a37.82,37.82,0,0,0,6.7,8.39,16.09,16.09,0,0,0,2.16,1.6,6.48,6.48,0,0,1,2.24,1.51,2,2,0,0,1,.32.62,1.84,1.84,0,0,1,0,.7,2.88,2.88,0,0,1-.5,1.27,7.82,7.82,0,0,1-2,1.89,19.58,19.58,0,0,1-4.85,2.4,29,29,0,0,1-16,.9,22.91,22.91,0,0,1-5.09-1.83,4.85,4.85,0,0,1-2-1.78,3.31,3.31,0,0,1-.63-2.6,2.75,2.75,0,0,1,.77-1.12c.3-.33.62-.65.93-1l1.89-1.92c1.26-1.29,2.5-2.59,3.66-4A27.63,27.63,0,0,0,176,204.08Zm0,0a27.78,27.78,0,0,1-5.44,9.24c-1.16,1.38-2.39,2.7-3.64,4L165,219.25c-.31.33-.63.64-.93,1a2.69,2.69,0,0,0-.73,1.08,3.16,3.16,0,0,0,.63,2.48,4.71,4.71,0,0,0,2,1.72A23.44,23.44,0,0,0,171,227.3a28.85,28.85,0,0,0,10.68.34,29.87,29.87,0,0,0,5.22-1.26,19.69,19.69,0,0,0,4.81-2.35,7.78,7.78,0,0,0,1.92-1.83,2,2,0,0,0,.18-2.41,6.62,6.62,0,0,0-2.19-1.48,16.32,16.32,0,0,1-2.17-1.62,38.52,38.52,0,0,1-6.68-8.46c-.94-1.53-1.82-3.1-2.66-4.69a2.19,2.19,0,0,0-2.24-1.15A2.4,2.4,0,0,0,176,204.08Z"/><path class="cls-13" d="M69.62,230.35a1.59,1.59,0,0,1-.29,2.88c-5.9,1.7-17.7,7.86-21.55,13-5.61,7.46-9.46-17.09,2.81-30.84a1.27,1.27,0,0,1,2.2.26C54.83,219.46,62.44,226.43,69.62,230.35Z"/><path class="cls-14" d="M69.62,230.35a1.61,1.61,0,0,1,.36,2.49,2.89,2.89,0,0,1-1.29.6c-.46.14-.91.31-1.36.47-1.8.67-3.55,1.46-5.28,2.3a63.84,63.84,0,0,0-9.84,5.94,23.51,23.51,0,0,0-4.19,3.9,7.71,7.71,0,0,1-1,1.07,2,2,0,0,1-1.35.54,1.86,1.86,0,0,1-1.29-.7,5.34,5.34,0,0,1-.77-1.24,17.08,17.08,0,0,1-1.19-5.64,33.81,33.81,0,0,1,.14-5.78,37.3,37.3,0,0,1,3-11.12,31.79,31.79,0,0,1,2.79-5c.57-.78,1.13-1.56,1.77-2.29a2.86,2.86,0,0,1,1.07-1,1.25,1.25,0,0,1,1.39.33,35.74,35.74,0,0,0,7.66,8.52A57.92,57.92,0,0,0,69.62,230.35Zm0,0a58.39,58.39,0,0,1-9.44-6.57,53.92,53.92,0,0,1-4.2-3.94,25.58,25.58,0,0,1-3.51-4.55,1.13,1.13,0,0,0-1.25-.29c-.44.16-.7.59-1,.94-.63.73-1.18,1.51-1.74,2.29a31.05,31.05,0,0,0-2.75,5,37.25,37.25,0,0,0-2.9,11.07,35.38,35.38,0,0,0-.17,5.73,17,17,0,0,0,1.15,5.58c.38.83,1,1.77,1.89,1.85a1.82,1.82,0,0,0,1.25-.5,2.89,2.89,0,0,0,.5-.49l.46-.55a23.75,23.75,0,0,1,4.24-3.9,63,63,0,0,1,9.9-5.89,56.19,56.19,0,0,1,5.29-2.28c.45-.16.9-.33,1.36-.46a2.94,2.94,0,0,0,1.29-.59A1.61,1.61,0,0,0,69.62,230.35Z"/><path class="cls-13" d="M51.07,212.34c.58,1.28-.56,2.71-1.79,2.19-5.57-2.35-14.86-5.56-20.67-3.77-8.46,2.6,1.81-20.22,18.94-23.8,1-.21,1.7.54,1.58,1.61C48.66,193.05,47.54,204.49,51.07,212.34Z"/><path class="cls-14" d="M51.07,212.34a1.64,1.64,0,0,1-1,2.26,2,2,0,0,1-1.34-.26l-1.28-.52c-1.73-.67-3.47-1.29-5.25-1.82a31.9,31.9,0,0,0-10.9-1.65,13.24,13.24,0,0,0-2.72.47L28,211c-.23,0-.47,0-.71,0a1.73,1.73,0,0,1-1.26-.62,2.5,2.5,0,0,1-.45-1.34,6,6,0,0,1,.08-1.4A13,13,0,0,1,26.4,205a31.29,31.29,0,0,1,6.13-9.24,33,33,0,0,1,8.84-6.7,26.15,26.15,0,0,1,5.21-1.95,6.87,6.87,0,0,1,1.38-.26,1.32,1.32,0,0,1,1.12.82,2.61,2.61,0,0,1,.07,1.41L49,190.46a70.7,70.7,0,0,0-.27,11.08A32.55,32.55,0,0,0,51.07,212.34Zm0,0a32.51,32.51,0,0,1-2.39-10.8,69.76,69.76,0,0,1,.21-11.1l.13-1.38a2.59,2.59,0,0,0-.07-1.33,1.14,1.14,0,0,0-1-.73,6.41,6.41,0,0,0-1.33.27,25.24,25.24,0,0,0-5.17,2,32.78,32.78,0,0,0-8.74,6.7,31.05,31.05,0,0,0-6.14,9.14,12.84,12.84,0,0,0-.79,2.63,3.54,3.54,0,0,0,.32,2.61,1.59,1.59,0,0,0,1.15.58c.23,0,.45,0,.68,0l.66-.15a12.85,12.85,0,0,1,2.75-.46,32,32,0,0,1,10.93,1.71c1.77.54,3.52,1.17,5.24,1.85l1.28.53a2,2,0,0,0,1.33.27A1.64,1.64,0,0,0,51.07,212.34Z"/><path class="cls-13" d="M49.58,186.05c-.26,1.43-1.94,1.87-2.61.64-3-5.56-8.49-14.25-14-16.57-8-3.37,12.6-15.43,27.91-7.22a1.5,1.5,0,0,1,.35,2.36C58.37,168.64,51.17,177.31,49.58,186.05Z"/><path class="cls-14" d="M49.58,186.05a1.69,1.69,0,0,1-.72,1.13,1.28,1.28,0,0,1-1.32.09c-.44-.2-.62-.68-.85-1.06L46,185c-.92-1.59-1.88-3.16-2.91-4.68A37.56,37.56,0,0,0,35.92,172a13.7,13.7,0,0,0-2.3-1.49A5.16,5.16,0,0,1,31.35,169a2.44,2.44,0,0,1,.41-2.66,9.11,9.11,0,0,1,2-1.91,21.18,21.18,0,0,1,4.91-2.54A29.87,29.87,0,0,1,44,160.42a28.53,28.53,0,0,1,11,.22,23.37,23.37,0,0,1,5.2,1.86,3.15,3.15,0,0,1,1.17.76,1.5,1.5,0,0,1,.24,1.37,3.3,3.3,0,0,1-.78,1.16L60,166.85a67.27,67.27,0,0,0-6.35,9A33.34,33.34,0,0,0,49.58,186.05Zm0,0a33.24,33.24,0,0,1,4-10.23,68.07,68.07,0,0,1,6.3-9l.88-1.07a3.35,3.35,0,0,0,.75-1.11,1.37,1.37,0,0,0-.22-1.24,3,3,0,0,0-1.13-.71A23.28,23.28,0,0,0,55,160.82a28.65,28.65,0,0,0-10.92-.16,29.6,29.6,0,0,0-5.3,1.41,20.25,20.25,0,0,0-4.88,2.49,8.51,8.51,0,0,0-2,1.85,2.29,2.29,0,0,0-.42,2.48,4.92,4.92,0,0,0,2.21,1.51A15.35,15.35,0,0,1,36,171.92a37.93,37.93,0,0,1,7.15,8.37q1.53,2.29,2.89,4.7l.67,1.21c.23.39.41.85.84,1.06a1.29,1.29,0,0,0,1.3-.08A1.67,1.67,0,0,0,49.58,186.05Z"/><ellipse class="cls-15" cx="79.24" cy="205.72" rx="10.91" ry="3.08" transform="translate(-37.06 18.44) rotate(-10.77)"/><ellipse class="cls-15" cx="147.84" cy="192.59" rx="10.91" ry="3.08" transform="translate(-33.4 31.03) rotate(-10.77)"/><path d="M111.26,194.51a8.29,8.29,0,0,1-1.36,5.61,7.58,7.58,0,0,1-4.77,3.27,6.72,6.72,0,0,1-5.57-1.47A7.51,7.51,0,0,1,97,196.78a7.83,7.83,0,0,0,2.7,5,6.5,6.5,0,0,0,5.41,1.36,7.39,7.39,0,0,0,4.69-3.13A8.72,8.72,0,0,0,111.26,194.51Z"/><path d="M125.57,193a8.3,8.3,0,0,1-1.68,5.42,7.48,7.48,0,0,1-4.87,2.94,6.8,6.8,0,0,1-5.4-1.72,7.62,7.62,0,0,1-2.4-5.12,8,8,0,0,0,2.52,5,6.54,6.54,0,0,0,5.25,1.59,7.27,7.27,0,0,0,4.77-2.79A8.7,8.7,0,0,0,125.57,193Z"/><path d="M78.86,192a11.62,11.62,0,0,1,0-4,12.49,12.49,0,0,1,1.33-3.79,10.81,10.81,0,0,1,6-5.09,9.37,9.37,0,0,1,7.79,1,10.23,10.23,0,0,1,4.43,6.48,10.54,10.54,0,0,0-4.52-6.34,9.17,9.17,0,0,0-7.62-.9,10.57,10.57,0,0,0-6,4.93A12.13,12.13,0,0,0,78.86,192Z"/><path d="M123.79,180.66a11.56,11.56,0,0,1,2.69-7.42,10.19,10.19,0,0,1,7-3.71,9.38,9.38,0,0,1,7.34,2.77,10.73,10.73,0,0,1,3,7.26,11.07,11.07,0,0,0-3.14-7.14,9.18,9.18,0,0,0-7.2-2.65,10.09,10.09,0,0,0-6.85,3.58A12.08,12.08,0,0,0,123.79,180.66Z"/><path class="cls-16" d="M150.43,153.79c8.44,1.1-21.57-11.93-42.66-8.62s-47.39,21.4-40.64,20.25c34.54-5.9,19.19-14.16,39.29-18.11C127.42,143.18,128,150.86,150.43,153.79Z"/><path class="cls-17" d="M65.87,222.83c-7.67-9.89,12.86,10.11,34,7.9,24.63-2.58,47.15-2.87,52-11.57,17.85-31.77,33.36-21,6.79-2.32C143.68,227.44,82.05,243.72,65.87,222.83Z"/><path class="cls-18" d="M51.1,218.05c2.86-3.56-5.56,9-6.84,21s5.73,2.92,5.59-.88c-.72-19.45-2.72-10,.41-11.56C53,225.19,43.31,227.72,51.1,218.05Z"/><path class="cls-19" d="M49.83,191.49c4.29-.48-9.7,2.48-18.42,10.37s2,6.47,4.41,3.55c12.24-14.92,4.66-9.42,7.85-8.23C46.47,198.22,38.16,192.78,49.83,191.49Z"/><path class="cls-20" d="M58.62,166.58c3.73,2.12-9.17-3.59-20.32-2s-1.68,6.73,1.77,5.64c17.62-5.58,8.62-5.33,10.61-2.43C52.43,170.37,48.45,160.81,58.62,166.58Z"/><path class="cls-21" d="M139.76,287.62s-8.56,2.41-6.67,3.75c.71.51-21.26,4-37.51-.72a26.08,26.08,0,0,1-8-4.87c-1.28-1.07-2.89-2.43-2.64-2.94.42-.86,5.46,1.65,13.66,3.81a111.13,111.13,0,0,0,15.07,2.75c4.95.65,9.93,1.06,10,.76s-6.4-.91-6.37-1.82c.06-1.64,22.31-7.33,23.18-3.39C140.67,286.11,136.3,284.22,139.76,287.62Z"/><path class="cls-22" d="M196.53,179.46c1.53-4.38-4.7,9.54-13.92,16.54s-5.18-3.91-2-5.62c16.32-8.78,9.51-2.31,9.29-6C189.73,181.14,192.36,191.41,196.53,179.46Z"/><path class="cls-23" d="M178.25,146.15c-1.32-4.4,1.77,10.42-1.59,21.69s-6.47.2-4.89-3.15c8.07-17.14,6.34-7.78,4-10.54C173.73,151.74,181.85,158.12,178.25,146.15Z"/><path class="cls-24" d="M190.83,222.1c3.8-2.27-9.24,4-20.2,2.72s-1.35-6.75,2-5.77c17.19,5,8.29,5.08,10.4,2.08C184.88,218.49,180.5,228.31,190.83,222.1Z"/><path class="cls-25" d="M96.46,303.5c1.5-.9-3.64,1.57-8,1.07s-.54-2.66.79-2.28c6.79,2,3.28,2,4.11.83S92.39,306,96.46,303.5Z"/><path class="cls-26" d="M58.26,274.89c-2.92.73,6.82-.72,13.81,2.45s-.34,4.83-2.38,3.46c-10.41-7-4.53-5.18-6.47-3.6C61.52,278.58,66.21,272.89,58.26,274.89Z"/><path class="cls-11" d="M133.41,248.94s25.77-6.69,30.61-22c-.25.4,3-7.14-5.82-3-.51.32,2.73-11.58-4.87-3.69.42.25-.08-11.3-6.28-4.24.26.07-4,10.85-16.1,17.58"/><path d="M133.41,248.94a75,75,0,0,0,9.18-3.31,65,65,0,0,0,8.65-4.49,38.41,38.41,0,0,0,7.61-6.06,21.43,21.43,0,0,0,5.06-8.2l.2.09a.12.12,0,0,1-.11.06.11.11,0,0,1-.09-.05.17.17,0,0,1,0-.07.26.26,0,0,0,0-.07l0-.07,0-.15.08-.3c.05-.2.1-.4.13-.6a5.48,5.48,0,0,0,.09-1.21,2.12,2.12,0,0,0-.36-1.11,1.54,1.54,0,0,0-1-.57,5.31,5.31,0,0,0-2.39.26,19.56,19.56,0,0,0-2.3.9h0a.23.23,0,0,1-.11,0,.21.21,0,0,1-.11-.08.18.18,0,0,1,0-.09.41.41,0,0,1,0-.11v-.19l0-.38.09-.74c.06-.49.12-1,.15-1.47a5.79,5.79,0,0,0-.3-2.85.91.91,0,0,0-1.13-.46,4.11,4.11,0,0,0-1.28.66,16.39,16.39,0,0,0-2.2,2l0-.17a.08.08,0,0,0-.1,0v0s0,0,0-.07l0-.18c0-.12,0-.25,0-.37s0-.5,0-.75a12.26,12.26,0,0,0-.21-1.48,6.54,6.54,0,0,0-1.11-2.74,1.9,1.9,0,0,0-1.2-.74,2.38,2.38,0,0,0-1.4.3,8.57,8.57,0,0,0-2.27,1.94l0-.14c.12.09.06.1.07.13v.06l0,.1-.05.18-.14.37c-.09.23-.19.47-.3.7-.21.46-.44.91-.69,1.36a30,30,0,0,1-1.58,2.6,38,38,0,0,1-3.8,4.76,38.8,38.8,0,0,1-9.6,7.4,38.8,38.8,0,0,0,9.51-7.49,38.35,38.35,0,0,0,3.77-4.75c.56-.84,1.09-1.71,1.57-2.59.24-.45.46-.9.67-1.36q.17-.34.3-.69l.13-.36,0-.17,0-.09s0-.09.06,0l0-.13a8.57,8.57,0,0,1,2.3-2,2.49,2.49,0,0,1,1.51-.33,2.08,2.08,0,0,1,1.32.8,6.81,6.81,0,0,1,1.17,2.82,15.05,15.05,0,0,1,.22,1.5c0,.26,0,.51,0,.77s0,.25,0,.38a1.36,1.36,0,0,1,0,.2.45.45,0,0,1,0,.11.13.13,0,0,1,0,.07.13.13,0,0,1-.17,0l-.13-.06.1-.1a17.59,17.59,0,0,1,2.22-2,4.42,4.42,0,0,1,1.35-.69,1.29,1.29,0,0,1,.8,0,1.12,1.12,0,0,1,.59.54,6,6,0,0,1,.34,3c0,.5-.09,1-.15,1.48l-.09.74,0,.37v.24s0,0,0,0-.12-.06-.14,0h0a19.33,19.33,0,0,1,2.33-.9,5.33,5.33,0,0,1,2.51-.26,1.81,1.81,0,0,1,1.12.66,2.41,2.41,0,0,1,.39,1.23,5.36,5.36,0,0,1-.09,1.27c0,.21-.09.41-.14.61l-.08.31-.05.15,0,.07s0,0,0,0a0,0,0,0,0,0,0s0,0-.08-.07a.11.11,0,0,0-.1.05l.2.09a21.69,21.69,0,0,1-5.14,8.26,38.72,38.72,0,0,1-7.66,6.06,61.88,61.88,0,0,1-8.69,4.45A75.69,75.69,0,0,1,133.41,248.94Z"/><path class="cls-27" d="M152,239.66c2-2.42-5.28,4.86-12.83,6.78s-2.37-4,.08-4.23c12.51-1,6.61,1.22,7.36-1.24C147.29,238.8,146.5,246.24,152,239.66Z"/></svg>